<?xml version="1.0" encoding="UTF-8" standalone="no"?>
<!-- Created with Inkscape (http://www.inkscape.org/) -->

<svg
   width="80.893616mm"
   height="80.903145mm"
   viewBox="0 0 80.893616 80.903145"
   version="1.1"
   id="svg306"
   inkscape:version="1.2.1 (9c6d41e410, 2022-07-14)"
   sodipodi:docname="logo_sun_made.svg"
   xmlns:inkscape="http://www.inkscape.org/namespaces/inkscape"
   xmlns:sodipodi="http://sodipodi.sourceforge.net/DTD/sodipodi-0.dtd"
   xmlns="http://www.w3.org/2000/svg"
   xmlns:svg="http://www.w3.org/2000/svg">
  <sodipodi:namedview
     id="namedview308"
     pagecolor="#ffffff"
     bordercolor="#666666"
     borderopacity="1.0"
     inkscape:showpageshadow="2"
     inkscape:pageopacity="0.0"
     inkscape:pagecheckerboard="0"
     inkscape:deskcolor="#d1d1d1"
     inkscape:document-units="mm"
     showgrid="false"
     inkscape:zoom="2.0636045"
     inkscape:cx="152.88783"
     inkscape:cy="152.88783"
     inkscape:window-width="1368"
     inkscape:window-height="850"
     inkscape:window-x="-6"
     inkscape:window-y="-6"
     inkscape:window-maximized="1"
     inkscape:current-layer="layer1" />
  <defs
     id="defs303" />
  <g
     inkscape:label="Calque 1"
     inkscape:groupmode="layer"
     id="layer1"
     transform="translate(501.0485,-191.10775)">
    <path
       inkscape:connector-curvature="0"
       d="m -460.73965,221.92311 c -3.64059,0.0283 -7.14956,2.30703 -8.61951,5.64429 -1.28764,2.69869 -1.14192,5.98101 0.30864,8.58606 1.35239,2.54333 3.90393,4.41437 6.74657,4.9028 1.11449,0.16755 2.40204,0.16975 3.5638,-0.0366 4.22444,-0.76783 7.67559,-4.68374 7.74724,-9.00161 0.18708,-2.81107 -0.98909,-5.65599 -3.08281,-7.5357 -1.78038,-1.68449 -4.21612,-2.61121 -6.66393,-2.55923 z m -14.58282,33.54354 c -1.93199,3.21998 -3.82564,6.46789 -5.62987,9.76217 -0.24063,0.36216 -0.42169,0.87553 -0.0409,1.21913 0.33936,0.43538 1.04434,0.32639 1.2567,-0.17417 2.04277,-3.27379 3.89131,-6.66519 5.84508,-9.99256 -0.13491,-0.33375 -0.66916,-0.42804 -0.96582,-0.65712 -0.14928,-0.0431 -0.30006,-0.24042 -0.46521,-0.15745 z m -5.68406,-4.66712 c -1.6296,1.68198 -3.36731,3.26534 -4.91562,5.02274 -0.51165,0.63113 0.53537,1.55776 1.13373,1.04246 1.73919,-1.53622 3.30804,-3.2582 4.97538,-4.87203 -0.0763,-0.39959 -0.62138,-0.66241 -0.87314,-1.00869 -0.092,-0.0552 -0.18669,-0.28449 -0.32035,-0.18448 z m -4.27504,-5.87423 c -3.15617,1.68235 -6.23367,3.51702 -9.32254,5.32186 -0.43801,0.29828 -1.23013,0.5319 -1.11139,1.20957 0.0712,0.49819 0.69139,1.00444 1.1579,0.61615 3.4134,-1.82924 6.73476,-3.82545 10.09075,-5.75695 0.0515,-0.34559 -0.35579,-0.67886 -0.49338,-1.01396 -0.10332,-0.11545 -0.14726,-0.35737 -0.32134,-0.37667 z m -2.74262,-6.8682 c -2.22796,0.57777 -4.4675,1.14816 -6.66947,1.80853 -0.61161,0.40869 -0.37727,1.5053 0.38161,1.54989 1.70411,-0.33947 3.38121,-0.86787 5.06973,-1.29798 0.58133,-0.20053 1.24969,-0.26242 1.78153,-0.55079 -0.0528,-0.49372 -0.14329,-1.04324 -0.41345,-1.46671 -0.0419,-0.0336 -0.0968,-0.0479 -0.14995,-0.0429 z m -6.55092,-7.34918 c -1.99804,0.0288 -4.01456,-0.0279 -6.00117,0.0539 -0.41488,0.313 -0.6953,0.99202 -0.23407,1.39079 0.44645,0.38327 1.11159,0.16108 1.64671,0.24516 3.50607,0.0385 7.01249,0.0166 10.51872,0.0252 0.22868,-0.34489 0.0288,-0.92425 0.096,-1.3553 0.1495,-0.65446 -0.70942,-0.28691 -1.07001,-0.37801 -1.65206,0.006 -3.30413,0.0122 -4.9562,0.0182 z m 0.22424,-8.96673 c -0.5993,0.0507 -0.95339,0.88749 -0.50822,1.33484 0.33625,0.42427 0.98111,0.34802 1.44225,0.55874 1.82542,0.49622 3.64664,1.02417 5.48141,1.47657 0.30809,-0.31238 0.32041,-0.84652 0.46258,-1.2545 0.1615,-0.30537 -0.12668,-0.44912 -0.39492,-0.46637 -2.11491,-0.55301 -4.20893,-1.20805 -6.35172,-1.64294 -0.0436,-0.004 -0.0875,-0.007 -0.13138,-0.006 z m -0.58413,-10.81774 c -0.79319,-0.0271 -1.10135,1.2594 -0.32757,1.54023 3.2745,1.99751 6.62159,3.87262 9.93693,5.80102 0.30939,-0.0999 0.39856,-0.57999 0.60616,-0.84214 0.11823,-0.21072 0.38673,-0.56834 0.0103,-0.67998 -3.26394,-1.96098 -6.54195,-3.90299 -9.87275,-5.74766 -0.11148,-0.0466 -0.23197,-0.0733 -0.35308,-0.0714 z m 9.65356,-4.81213 c -0.71448,0.0206 -1.04795,1.07643 -0.44515,1.48524 1.52257,1.62105 3.11494,3.17431 4.67759,4.75634 0.40651,-0.0816 0.67767,-0.63202 1.03163,-0.88869 0.57332,-0.35521 -0.29171,-0.70765 -0.48241,-1.02866 -1.43128,-1.40429 -2.80032,-2.87992 -4.30512,-4.20522 -0.1457,-0.0776 -0.31001,-0.12841 -0.47654,-0.11901 z m 4.83051,-9.66182 c -0.65203,-0.019 -1.0363,0.80751 -0.61392,1.30243 1.88133,3.31699 3.7521,6.64427 5.75079,9.89138 0.3787,0.038 0.71743,-0.3558 1.06649,-0.49212 0.69408,-0.17002 0.052,-0.72305 -0.0981,-1.08713 -1.81862,-3.11908 -3.56757,-6.28189 -5.45674,-9.35798 -0.14659,-0.21854 -0.39912,-0.27847 -0.64851,-0.25658 z m 10.82727,0.66117 c -0.56993,-0.007 -0.96227,0.61435 -0.74046,1.13402 0.51107,2.17049 1.1175,4.32706 1.70273,6.47284 0.35242,0.0702 0.72213,-0.19175 1.08079,-0.23138 0.20131,-0.0624 0.59509,-0.10408 0.44659,-0.41347 -0.52808,-2.17245 -1.06028,-4.35132 -1.75606,-6.47644 -0.0972,-0.31246 -0.41334,-0.5021 -0.73359,-0.48557 z m 8.95753,-6.00292 c -0.39822,0.0721 -0.86061,0.44339 -0.7725,0.87907 -0.0141,3.84505 -0.0285,7.69011 -0.0425,11.53515 0.34471,0.22936 0.92543,0.0291 1.35687,0.0964 0.65581,0.15049 0.28873,-0.70869 0.3795,-1.07002 -0.038,-3.58291 0.0268,-7.16858 -0.0876,-10.74976 0.0332,-0.46996 -0.43042,-0.68251 -0.83376,-0.6908 z m 9.10146,5.99024 c -0.70199,-0.0277 -0.90146,0.7799 -1.02314,1.31662 -0.50791,1.92305 -1.07368,3.83908 -1.51962,5.77376 0.22513,0.38073 0.79951,0.33244 1.17683,0.48541 0.30378,0.17167 0.44774,-0.12079 0.48052,-0.38296 0.60693,-2.14298 1.24308,-4.28695 1.71028,-6.46305 -0.0673,-0.36388 -0.44664,-0.72711 -0.82487,-0.72978 z m 10.75244,-0.67051 c -0.66192,0.007 -0.79138,0.81127 -1.13984,1.22788 -1.79792,3.04858 -3.62406,6.08597 -5.28765,9.20968 0.12198,0.32761 0.61986,0.41069 0.89022,0.63119 0.39396,0.44322 0.64934,0.042 0.81968,-0.3334 1.89621,-3.25963 3.79569,-6.5215 5.57984,-9.84298 0.0372,-0.47346 -0.3889,-0.91011 -0.86225,-0.89237 z m 4.78946,9.67718 c -0.62956,0.19838 -1.01534,0.83332 -1.51274,1.23617 -1.27133,1.29016 -2.61645,2.53861 -3.82789,3.86819 0.35364,0.38746 0.71492,0.82149 1.12931,1.13691 1.62303,-1.57661 3.25878,-3.16426 4.81323,-4.81609 0.57777,-0.49401 0.10411,-1.44298 -0.60191,-1.42518 z m 9.68353,4.79121 c -3.47422,1.9032 -6.91428,3.875 -10.3268,5.88755 -0.13483,0.28221 0.23644,0.57953 0.3217,0.84879 0.16349,0.23449 0.34794,0.80897 0.70897,0.47618 3.3564,-1.89856 6.70659,-3.81372 10.00056,-5.81777 0.46213,-0.52483 -0.01,-1.45388 -0.70443,-1.39475 z m -0.47687,10.83296 c -2.32279,0.44182 -4.58934,1.17886 -6.87927,1.74165 -0.20477,0.25836 0.12918,0.65803 0.13693,0.95765 0.0554,0.2766 0.15958,0.85606 0.57893,0.61417 2.12275,-0.60828 4.29245,-1.06957 6.38167,-1.78608 0.69322,-0.27526 0.50915,-1.44731 -0.21826,-1.52739 z m -5.79671,8.9978 c -0.0198,0.55001 -0.058,1.13838 0.0173,1.67937 3.9801,0.0326 7.97449,-0.0224 11.96004,-0.0236 0.53854,-0.28529 0.70487,-1.26873 0.0769,-1.54183 -1.34497,-0.24494 -2.73225,-0.10157 -4.0936,-0.1507 -2.62822,-8.7e-4 -5.25646,-6.4e-4 -7.88468,-6.4e-4 l -0.0728,0.0358 z m -0.75974,7.35171 c -0.15481,0.50001 -0.33898,1.01689 -0.40222,1.5285 2.25795,0.63778 4.53218,1.28261 6.82255,1.81391 0.72495,0.013 1.15716,-1.18551 0.4252,-1.50457 -1.61129,-0.64122 -3.33402,-0.95614 -4.9965,-1.43995 -0.58433,-0.14899 -1.16531,-0.31361 -1.75381,-0.4448 l -0.0727,0.0359 z m -2.46765,6.85457 c -0.43208,0.24843 -0.65587,0.78756 -0.84275,1.23563 -0.0328,0.3388 0.49043,0.36739 0.68122,0.56609 3.13472,1.80866 6.24781,3.66019 9.41275,5.41306 0.71012,0.36681 1.58028,-0.74902 0.9228,-1.29127 -3.32443,-2.03359 -6.68943,-4.00523 -10.09301,-5.90339 -0.0253,-0.0121 -0.0526,-0.0222 -0.081,-0.0202 z m -4.43017,5.86662 c -0.36203,0.39973 -0.81505,0.74263 -1.12346,1.17574 1.57077,1.6187 3.1602,3.2419 4.8172,4.77995 0.47126,0.49985 1.44806,0.16947 1.41346,-0.54484 0.016,-0.6097 -0.63869,-0.95387 -0.96458,-1.38897 -1.328,-1.34814 -2.67172,-2.68078 -4.00682,-4.02188 -0.0446,0.0109 -0.0952,-0.0728 -0.1358,0 z m -5.6752,4.67949 c -0.47219,0.16021 -0.99338,0.40272 -1.29302,0.8106 0.52109,1.11903 1.22907,2.17676 1.82259,3.27036 1.34279,2.29817 2.63636,4.63031 4.03027,6.89573 0.44594,0.5593 1.34973,0.15331 1.42818,-0.49239 -0.009,-0.47682 -0.43208,-0.86084 -0.6013,-1.2966 -1.73471,-3.06557 -3.43536,-6.1567 -5.27121,-9.16093 -0.0324,-0.0256 -0.0757,-0.0308 -0.11551,-0.0268 z m -7.40305,3.09155 c -0.23093,0.14046 -0.89726,0.0523 -0.75372,0.47099 0.5691,2.12963 1.08332,4.27845 1.7399,6.38231 0.12652,0.61992 0.96595,0.79251 1.36036,0.3244 0.50266,-0.38947 0.0985,-0.99996 0.0262,-1.48413 -0.50682,-1.94377 -0.9865,-3.89596 -1.55844,-5.82178 -0.17982,-0.17069 -0.58988,0.12802 -0.8144,0.12821 z m -8.1094,0.96069 c -0.0317,3.76261 -0.0428,7.54014 0.0247,11.30768 -0.0739,0.49582 0.15261,1.09315 0.71077,1.1609 0.55918,0.0983 1.14237,-0.47641 0.97843,-1.03786 0,-3.7907 0,-7.5814 0,-11.37209 -0.34436,-0.2287 -0.92319,-0.0289 -1.35371,-0.096 -0.11778,0.0162 -0.25669,-0.0375 -0.36007,0.0374 z m -7.13317,-1.14325 c -0.31226,0.56388 -0.36436,1.29302 -0.58331,1.91509 -0.41026,1.62376 -0.92533,3.22772 -1.26358,4.8661 -0.0106,0.54998 0.54164,1.02989 1.08463,0.79507 0.62566,-0.20941 0.59736,-1.0213 0.81708,-1.53195 0.4969,-1.85521 1.04786,-3.70414 1.44025,-5.58252 -0.38148,-0.28492 -0.94415,-0.30462 -1.40078,-0.45403 -0.031,-0.005 -0.0627,-0.0132 -0.0943,-0.008 z m 7.83347,-52.03723 c -7.66765,-0.0662 -15.21879,3.72319 -19.8482,9.81897 -3.33586,4.3498 -5.25505,9.80702 -5.20327,15.30169 -0.11817,7.04237 2.99538,14.04008 8.21483,18.75346 3.76812,3.46574 8.62172,5.68845 13.68946,6.3682 2.18014,0.31466 4.39424,0.28368 6.57566,-0.003 7.31071,-0.89784 14.09211,-5.22944 18.01422,-11.45932 2.45036,-3.81509 3.8298,-8.29632 3.9538,-12.82853 0.25466,-7.01697 -2.63758,-14.05303 -7.70766,-18.90221 -4.67349,-4.52982 -11.15969,-7.20873 -17.68884,-7.04897 z m 0.2211,6.8579 c 0.5708,0.0554 1.2266,-0.0855 1.73135,0.22614 0.22897,0.55355 0.16809,1.21479 0.51661,1.73642 0.48224,0.86692 1.44527,1.51568 2.46541,1.38888 0.75814,0.0941 1.48317,-0.23915 1.99476,-0.78761 0.35101,-0.23449 0.46665,-0.92487 0.98016,-0.81236 1.42447,0.60371 2.74242,1.47711 3.93939,2.46447 0.20318,0.18881 0.53253,0.42588 0.3328,0.73247 -0.27269,0.60698 -0.62943,1.21679 -0.51952,1.91263 -0.0803,1.75413 1.84462,3.098 3.48811,2.66639 0.35892,-0.0891 0.8843,-0.42555 1.11093,0.065 0.77895,1.40191 1.37467,2.9354 1.73641,4.47949 0.16298,0.58175 -0.59349,0.66095 -0.92962,0.90997 -1.30922,0.74308 -1.76854,2.58177 -0.96512,3.85462 0.41791,0.79725 1.2638,1.18529 2.07698,1.44689 0.35336,0.27155 0.0786,0.80871 0.0701,1.17072 -0.30389,1.38558 -0.60478,2.80417 -1.23697,4.08774 -0.17034,0.31853 -0.64214,-0.0114 -0.948,0.043 -0.93929,-0.12578 -1.94044,0.15661 -2.55685,0.90601 -0.79276,0.76274 -0.8868,1.98698 -0.53866,2.98077 0.13074,0.45201 0.59464,0.75051 0.66605,1.21314 -0.62851,0.93412 -1.58841,1.60008 -2.43767,2.31802 -0.56654,0.38977 -1.09893,0.92322 -1.77145,1.10776 -0.56522,-0.36299 -0.95439,-0.98128 -1.61772,-1.20966 -1.12671,-0.4752 -2.52885,-0.0923 -3.27411,0.87733 -0.55457,0.64896 -0.6286,1.52659 -0.66609,2.33816 -0.26734,0.41114 -0.88273,0.31903 -1.31014,0.42731 -1.31686,0.0921 -2.66628,0.21657 -3.98359,0.0846 -0.4794,-0.23388 -0.26169,-0.89802 -0.4569,-1.30996 -0.38977,-1.44215 -2.02538,-2.31075 -3.44937,-1.92311 -0.82548,0.1666 -1.39759,0.8194 -1.89856,1.4423 -0.3005,0.33709 -0.73825,-0.09 -1.05527,-0.18811 -1.27305,-0.71987 -2.57302,-1.47367 -3.60106,-2.52627 -0.23364,-0.42553 0.341,-0.76131 0.39729,-1.17114 0.17054,-0.68804 0.22052,-1.46459 -0.0341,-2.13626 -0.57583,-1.29849 -2.17839,-2.08247 -3.53449,-1.55284 -0.32308,0.14143 -0.77913,0.17747 -0.9287,-0.22035 -0.7517,-1.43614 -1.38913,-2.95476 -1.70743,-4.5489 -0.057,-0.4133 0.53255,-0.47264 0.78415,-0.66734 0.99361,-0.50695 1.63229,-1.616 1.49853,-2.73561 0.003,-1.32308 -1.15574,-2.32815 -2.36571,-2.62311 -0.44431,-0.21135 -0.16777,-0.79398 -0.15267,-1.15821 0.28786,-1.4081 0.58411,-2.84522 1.24504,-4.12966 0.37074,-0.36201 0.9167,0.0533 1.36639,-0.02 1.50573,0.0371 2.92981,-1.26392 2.87221,-2.80154 0.0295,-0.81338 -0.38699,-1.53716 -0.84404,-2.17318 -0.0998,-0.38876 0.39415,-0.62672 0.58495,-0.90617 1.07877,-1.03695 2.24533,-2.0279 3.58441,-2.69488 0.62111,0.42907 1.08939,1.11156 1.86209,1.306 1.4969,0.4785 3.33896,-0.51508 3.56653,-2.12026 0.13266,-0.4336 0,-0.98364 0.23751,-1.36369 1.16891,-0.34294 2.45117,-0.36933 3.67557,-0.40601 z"
       style="fill:#f0af12;fill-opacity:1;fill-rule:evenodd;stroke:none;stroke-width:0.030667;stroke-linecap:square;stroke-linejoin:bevel;stroke-miterlimit:4;stroke-dasharray:none;stroke-opacity:1;paint-order:stroke fill markers"
       id="path8980" />
  </g>
</svg>
